<?xml version="1.0" encoding="utf-8"?>
<!-- Generator: Adobe Illustrator 16.0.0, SVG Export Plug-In . SVG Version: 6.00 Build 0)  -->
<!DOCTYPE svg PUBLIC "-//W3C//DTD SVG 1.1//EN" "http://www.w3.org/Graphics/SVG/1.1/DTD/svg11.dtd">
<svg version="1.1" id="Capa_1" xmlns="http://www.w3.org/2000/svg" xmlns:xlink="http://www.w3.org/1999/xlink" x="0px" y="0px"
	 width="512px" height="512px" viewBox="0 0 512 512" enable-background="new 0 0 512 512" xml:space="preserve">
<g>
	<g>
		<path fill="#FFFFFF" d="M256.014,113.4c-31.25,0-56.514-25.375-56.514-56.71C199.5,25.384,224.763,0,256.014,0
			c31.177,0,56.468,25.375,56.468,56.69C312.481,88.016,287.183,113.4,256.014,113.4z"/>
		<path fill="#FFFFFF" d="M256.023,312.67c-31.25,0-56.523-25.374-56.523-56.709c0-31.298,25.263-56.709,56.514-56.709
			c31.177,0,56.468,25.402,56.486,56.709C312.481,287.313,287.172,312.67,256.023,312.67z"/>
		<path fill="#FFFFFF" d="M256.023,511c-31.25,0-56.523-25.374-56.523-56.709s25.263-56.699,56.514-56.699
			c31.177-0.019,56.468,25.374,56.468,56.699S287.172,511,256.023,511z"/>
	</g>
</g>
</svg>
